<svg xmlns="http://www.w3.org/2000/svg" xmlns:xlink="http://www.w3.org/1999/xlink" preserveAspectRatio="xMidYMid" width="28.25" height="32" viewBox="0 0 28.25 32">
  <defs>
    <style>
      .cls-1 {
        fill: red;
      }

      .cls-1, .cls-2, .cls-3, .cls-4, .cls-5, .cls-6 {
        fill-rule: evenodd;
      }

      .cls-2 {
        fill: #c6007e;
      }

      .cls-3 {
        fill: #0033a0;
      }

      .cls-4 {
        fill: #00aec7;
      }

      .cls-5 {
        fill: #a8bc16;
      }

      .cls-6 {
        fill: #eedc00;
      }
    </style>
  </defs>
  <g>
    <path d="M10.661,14.000 C10.109,14.957 8.885,15.284 7.929,14.732 L1.001,10.732 C0.044,10.180 -0.284,8.957 0.269,8.000 C0.821,7.043 2.044,6.716 3.001,7.268 L9.929,11.268 C10.885,11.820 11.213,13.043 10.661,14.000 Z" class="cls-1"/>
    <path d="M10.661,18.000 C11.213,18.957 10.885,20.180 9.929,20.732 L3.001,24.732 C2.044,25.284 0.821,24.957 0.269,24.000 C-0.284,23.043 0.044,21.820 1.001,21.268 L7.929,17.268 C8.885,16.716 10.109,17.043 10.661,18.000 Z" class="cls-2"/>
    <path d="M14.125,20.000 C15.230,20.000 16.125,20.895 16.125,22.000 L16.125,30.000 C16.125,31.105 15.230,32.000 14.125,32.000 C13.020,32.000 12.125,31.105 12.125,30.000 L12.125,22.000 C12.125,20.895 13.020,20.000 14.125,20.000 Z" class="cls-3"/>
    <path d="M27.981,24.000 C27.429,24.957 26.206,25.284 25.249,24.732 L18.321,20.732 C17.365,20.180 17.037,18.957 17.589,18.000 C18.141,17.043 19.365,16.716 20.321,17.268 L27.249,21.268 C28.206,21.820 28.534,23.043 27.981,24.000 Z" class="cls-4"/>
    <path d="M27.981,8.000 C28.534,8.957 28.206,10.180 27.249,10.732 L20.321,14.732 C19.365,15.284 18.141,14.957 17.589,14.000 C17.037,13.043 17.365,11.820 18.321,11.268 L25.249,7.268 C26.206,6.716 27.429,7.043 27.981,8.000 Z" class="cls-5"/>
    <path d="M14.125,-0.000 C15.230,-0.000 16.125,0.895 16.125,2.000 L16.125,10.000 C16.125,11.105 15.230,12.000 14.125,12.000 C13.020,12.000 12.125,11.105 12.125,10.000 L12.125,2.000 C12.125,0.895 13.020,-0.000 14.125,-0.000 Z" class="cls-6"/>
  </g>
</svg>
