<?xml version="1.0" encoding="utf-8"?>
<!-- Generator: Adobe Illustrator 16.0.4, SVG Export Plug-In . SVG Version: 6.00 Build 0)  -->
<!DOCTYPE svg PUBLIC "-//W3C//DTD SVG 1.1//EN" "http://www.w3.org/Graphics/SVG/1.1/DTD/svg11.dtd">
<svg version="1.1" id="Layer_1" xmlns="http://www.w3.org/2000/svg" xmlns:xlink="http://www.w3.org/1999/xlink" x="0px" y="0px"
	 width="420.039px" height="55.881px" viewBox="0 0 420.039 55.881" enable-background="new 0 0 420.039 55.881"
	 xml:space="preserve">
<g>
	<defs>
		<rect id="SVGID_1_" x="0" width="420.038" height="55.081"/>
	</defs>
	<clipPath id="SVGID_2_">
		<use xlink:href="#SVGID_1_"  overflow="visible"/>
	</clipPath>
	<path clip-path="url(#SVGID_2_)" fill="#010202" d="M240.771,51.34c-1.546,0-2.801-1.255-2.801-2.801V6.995
		c0-1.547,1.255-2.8,2.801-2.8c1.548,0,2.802,1.253,2.802,2.8V48.54C243.573,50.085,242.319,51.34,240.771,51.34"/>
	<path clip-path="url(#SVGID_2_)" fill="#010202" d="M268.933,51.34c-1.546,0-2.801-1.255-2.801-2.801V21.88
		c0-1.547,1.255-2.801,2.801-2.801c1.547,0,2.801,1.254,2.801,2.801V48.54C271.734,50.085,270.48,51.34,268.933,51.34"/>
	<path clip-path="url(#SVGID_2_)" fill="#0075BF" d="M240.769,51.34c-0.54,0-1.088-0.156-1.569-0.483
		c-1.28-0.867-1.614-2.608-0.747-3.89l28.162-41.543c0.868-1.28,2.609-1.615,3.89-0.747s1.614,2.61,0.747,3.89L243.089,50.11
		C242.547,50.91,241.667,51.34,240.769,51.34"/>
	<path clip-path="url(#SVGID_2_)" fill="#010202" d="M199.355,44.798h-0.448h-12.152h-0.449c-9.516,0-17.258-7.741-17.258-17.258
		s7.742-17.258,17.258-17.258h0.449h12.152h0.448c9.517,0,17.258,7.742,17.258,17.258S208.873,44.798,199.355,44.798 M199.355,4.681
		h-0.448h-12.152h-0.449c-12.605,0-22.859,10.255-22.859,22.859S173.702,50.4,186.307,50.4h0.449h12.152h0.448
		c12.605,0,22.861-10.255,22.861-22.859S211.96,4.681,199.355,4.681"/>
	<path clip-path="url(#SVGID_2_)" fill="#00ABCD" d="M190.847,55.081c-1.547,0-2.801-1.254-2.801-2.801
		c0-3.459,1.503-5.333,2.601-6.702c0.883-1.101,1.369-1.707,1.369-3.197s-0.486-2.097-1.369-3.197
		c-1.098-1.368-2.601-3.242-2.601-6.702c0-3.457,1.504-5.331,2.601-6.699c0.883-1.1,1.369-1.705,1.369-3.193
		c0-1.489-0.486-2.096-1.369-3.195c-1.097-1.368-2.601-3.242-2.601-6.701c0-3.458,1.504-5.331,2.601-6.699
		c0.883-1.1,1.369-1.705,1.369-3.193c0-1.547,1.254-2.801,2.8-2.801c1.547,0,2.801,1.254,2.801,2.801
		c0,3.457-1.503,5.331-2.601,6.699c-0.882,1.099-1.368,1.705-1.368,3.193c0,1.489,0.486,2.095,1.368,3.196
		c1.098,1.368,2.601,3.241,2.601,6.7c0,3.458-1.503,5.332-2.601,6.699c-0.882,1.1-1.368,1.705-1.368,3.193
		c0,1.491,0.486,2.097,1.369,3.198c1.097,1.368,2.6,3.242,2.6,6.701c0,3.46-1.503,5.334-2.601,6.702
		c-0.882,1.102-1.368,1.707-1.368,3.197C193.647,53.827,192.394,55.081,190.847,55.081"/>
	<path clip-path="url(#SVGID_2_)" fill="#010202" d="M350.837,51.341c-0.35,0-0.705-0.066-1.049-0.205
		c-1.435-0.58-2.127-2.213-1.547-3.646l16.88-41.747c0.581-1.435,2.216-2.127,3.646-1.547c1.435,0.58,2.127,2.212,1.547,3.646
		l-16.881,41.748C352.994,50.679,351.945,51.341,350.837,51.341"/>
	<path clip-path="url(#SVGID_2_)" fill="#010202" d="M353.032,40.5c-1.087,0-2.122-0.637-2.576-1.7L337.233,7.895
		c-0.608-1.422,0.052-3.069,1.474-3.677c1.423-0.608,3.069,0.052,3.676,1.473l13.222,30.907c0.609,1.422-0.05,3.068-1.473,3.676
		C353.772,40.427,353.398,40.5,353.032,40.5"/>
	<path clip-path="url(#SVGID_2_)" fill="#010202" d="M417.237,40.5c-1.546,0-2.801-1.255-2.801-2.801V16.204l-8.953,13.357
		c-0.52,0.775-1.392,1.24-2.326,1.24c-0.934,0-1.806-0.465-2.325-1.24l-8.955-13.357v21.495c0,1.546-1.255,2.801-2.801,2.801
		c-1.547,0-2.802-1.255-2.802-2.801V6.996c0-1.233,0.808-2.321,1.986-2.68c1.181-0.358,2.455,0.096,3.142,1.121l11.755,17.535
		l11.754-17.535c0.688-1.025,1.964-1.478,3.142-1.121c1.179,0.359,1.985,1.447,1.985,2.68v30.703
		C420.038,39.245,418.784,40.5,417.237,40.5"/>
	<path clip-path="url(#SVGID_2_)" fill="#B9C400" d="M417.237,51.34h-28.161c-1.547,0-2.802-1.255-2.802-2.801
		c0-1.547,1.255-2.801,2.802-2.801h28.161c1.547,0,2.801,1.254,2.801,2.801C420.038,50.085,418.784,51.34,417.237,51.34"/>
	<path clip-path="url(#SVGID_2_)" fill="#010202" d="M318.452,51.341c-1.17,0-2.26-0.738-2.654-1.906l-11.432-33.897l-8.593,25.364
		c-0.497,1.464-2.083,2.252-3.553,1.753c-1.465-0.496-2.25-2.086-1.753-3.551l11.251-33.21c0.386-1.137,1.453-1.902,2.653-1.902
		h0.002c1.201,0,2.269,0.767,2.652,1.905l14.08,41.747c0.494,1.466-0.294,3.055-1.76,3.549
		C319.049,51.293,318.748,51.341,318.452,51.341"/>
	<path clip-path="url(#SVGID_2_)" fill="#E6005D" d="M290.291,51.339c-0.738,0-1.462-0.3-1.981-0.818
		c-0.519-0.52-0.819-1.243-0.819-1.981c0-0.739,0.301-1.463,0.819-1.981c0.52-0.52,1.243-0.819,1.981-0.819s1.462,0.3,1.98,0.819
		c0.52,0.526,0.819,1.242,0.819,1.981c0,0.738-0.3,1.462-0.819,1.981C291.752,51.04,291.029,51.339,290.291,51.339"/>
	<path clip-path="url(#SVGID_2_)" fill="#010202" d="M123.187,52.274c-8.994,0-17.251-4.914-21.548-12.823
		c-0.738-1.36-0.235-3.062,1.124-3.799c1.36-0.737,3.06-0.234,3.799,1.124c3.315,6.104,9.686,9.896,16.625,9.896
		c10.424,0,18.905-8.479,18.905-18.905c0-10.424-8.481-18.905-18.905-18.905c-7.074,0-13.501,3.9-16.774,10.177
		c-0.716,1.371-2.408,1.903-3.778,1.189c-1.372-0.716-1.904-2.407-1.189-3.779c4.242-8.135,12.573-13.188,21.741-13.188
		c13.513,0,24.506,10.994,24.506,24.506C147.693,41.281,136.7,52.274,123.187,52.274"/>
	<path clip-path="url(#SVGID_2_)" fill="#B9C400" d="M101.482,30.568c-0.738,0-1.455-0.3-1.981-0.819
		c-0.519-0.525-0.819-1.242-0.819-1.98c0-0.739,0.3-1.463,0.819-1.982s1.243-0.819,1.981-0.819c0.739,0,1.455,0.3,1.981,0.819
		c0.519,0.519,0.819,1.243,0.819,1.982c0,0.738-0.3,1.455-0.819,1.98C102.937,30.268,102.221,30.568,101.482,30.568"/>
	<path clip-path="url(#SVGID_2_)" fill="#010202" d="M52.321,51.339c-0.739,0-1.455-0.3-1.981-0.818
		c-0.519-0.52-0.819-1.243-0.819-1.981c0-0.739,0.3-1.463,0.819-1.981c0.519-0.52,1.242-0.819,1.981-0.819
		c0.738,0,1.462,0.3,1.981,0.819c0.519,0.519,0.819,1.242,0.819,1.981c0,0.738-0.3,1.462-0.819,1.981
		C53.783,51.04,53.059,51.339,52.321,51.339"/>
	<path clip-path="url(#SVGID_2_)" fill="#010202" d="M67.508,35.03h-6.017c-1.547,0-2.801-1.255-2.801-2.801
		c0-1.547,1.254-2.802,2.801-2.802h6.017c5.413,0,9.816-4.402,9.816-9.815c0-5.412-4.403-9.815-9.816-9.815h-6.017
		c-1.547,0-2.801-1.254-2.801-2.801s1.254-2.801,2.801-2.801h6.017c8.501,0,15.417,6.916,15.417,15.417S76.009,35.03,67.508,35.03"
		/>
	<path clip-path="url(#SVGID_2_)" fill="#010202" d="M52.321,41.771c-1.547,0-2.801-1.256-2.801-2.802V6.996
		c0-1.547,1.254-2.801,2.801-2.801s2.801,1.254,2.801,2.801v31.974C55.122,40.515,53.868,41.771,52.321,41.771"/>
	<path clip-path="url(#SVGID_2_)" fill="#010202" d="M30.964,51.34c-1.547,0-2.801-1.255-2.801-2.801V6.995
		c0-1.547,1.254-2.8,2.801-2.8c1.547,0,2.801,1.253,2.801,2.8V48.54C33.765,50.085,32.511,51.34,30.964,51.34"/>
	<path clip-path="url(#SVGID_2_)" fill="#010202" d="M2.801,51.34C1.254,51.34,0,50.085,0,48.54V6.995c0-1.547,1.254-2.8,2.801-2.8
		s2.801,1.253,2.801,2.8V48.54C5.602,50.085,4.348,51.34,2.801,51.34"/>
	<path clip-path="url(#SVGID_2_)" fill="#E6005D" d="M11.299,9.816c-1.545,0-2.798-1.251-2.801-2.796
		c-0.003-1.547,1.249-2.802,2.796-2.805l11.167-0.02h0.005c1.545,0,2.798,1.25,2.801,2.795c0.003,1.547-1.249,2.803-2.796,2.806
		l-11.167,0.02H11.299z"/>
</g>
</svg>
