<?xml version="1.0" encoding="utf-8"?>
<!-- Generator: Adobe Illustrator 17.0.0, SVG Export Plug-In . SVG Version: 6.00 Build 0)  -->
<!DOCTYPE svg PUBLIC "-//W3C//DTD SVG 1.1//EN" "http://www.w3.org/Graphics/SVG/1.1/DTD/svg11.dtd">
<svg version="1.1" id="Layer_1" xmlns="http://www.w3.org/2000/svg" xmlns:xlink="http://www.w3.org/1999/xlink" x="0px" y="0px"
	 width="84.738px" height="80px" viewBox="0 0 84.738 80" enable-background="new 0 0 84.738 80" xml:space="preserve">
<path fill-rule="evenodd" clip-rule="evenodd" fill="#FFFFFF" d="M80.406,15.375H52.932c-2.392,0-4.332,1.939-4.332,4.332v16.461
	c0,2.393,1.939,4.332,4.332,4.332h0.797v12.071L68.656,40.5h11.75c2.392,0,4.332-1.939,4.332-4.332V19.707
	C84.738,17.315,82.798,15.375,80.406,15.375z"/>
<path d="M39.241,48.513c-1.104,0-2-0.896-2-2c0-9.253-7.477-16.781-16.667-16.781S3.906,37.259,3.906,46.513c0,1.104-0.896,2-2,2
	s-2-0.896-2-2c0-11.459,9.271-20.781,20.667-20.781s20.667,9.322,20.667,20.781C41.241,47.617,40.346,48.513,39.241,48.513z"/>
<path d="M20.574,73.795c-11.404,0-20.683-9.337-20.683-20.813c0-1.104,0.896-2,2-2s2,0.896,2,2c0,9.271,7.484,16.813,16.683,16.813
	c9.199,0,16.684-7.543,16.684-16.813c0-1.104,0.896-2,2-2s2,0.896,2,2C41.258,64.458,31.979,73.795,20.574,73.795z"/>
<path d="M16.618,51.039h-7.79c-1.104,0-2-0.896-2-2s0.896-2,2-2h7.79c1.104,0,2,0.896,2,2S17.722,51.039,16.618,51.039z"/>
<path d="M32.62,51.039h-8.486c-1.104,0-2-0.896-2-2s0.896-2,2-2h8.486c1.104,0,2,0.896,2,2S33.724,51.039,32.62,51.039z"/>
<path d="M23.636,62.813h-6.124c-1.104,0-2-0.896-2-2s0.896-2,2-2h6.124c1.104,0,2,0.896,2,2S24.74,62.813,23.636,62.813z"/>
<path d="M69.634,22.52h-18.29c-1.104,0-2-0.896-2-2s0.896-2,2-2h18.29c1.104,0,2,0.896,2,2S70.738,22.52,69.634,22.52z"/>
<path d="M69.634,28.739h-18.29c-1.104,0-2-0.896-2-2s0.896-2,2-2h18.29c1.104,0,2,0.896,2,2S70.738,28.739,69.634,28.739z"/>
<path d="M50.773,44.341c-0.289,0-0.58-0.062-0.852-0.19c-0.701-0.33-1.148-1.035-1.148-1.81v-5.063
	c-3.887-0.008-7.046-3.172-7.046-7.06V15.881c0-3.893,3.167-7.06,7.061-7.06H72.19c3.893,0,7.06,3.167,7.06,7.06v14.337
	c0,3.893-3.167,7.06-7.06,7.06H60.031l-7.983,6.604C51.683,44.185,51.23,44.341,50.773,44.341z M48.788,12.821
	c-1.688,0-3.061,1.373-3.061,3.06v14.337c0,1.688,1.373,3.06,3.061,3.06h1.985c1.104,0,2,0.896,2,2v2.813l5.264-4.354
	c0.358-0.297,0.809-0.459,1.274-0.459H72.19c1.688,0,3.06-1.373,3.06-3.06V15.881c0-1.687-1.372-3.06-3.06-3.06H48.788z"/>
</svg>
