<?xml version="1.0" encoding="utf-8"?>
<!-- Generator: Adobe Illustrator 17.0.0, SVG Export Plug-In . SVG Version: 6.00 Build 0)  -->
<!DOCTYPE svg PUBLIC "-//W3C//DTD SVG 1.1//EN" "http://www.w3.org/Graphics/SVG/1.1/DTD/svg11.dtd">
<svg version="1.1" id="Layer_1" xmlns="http://www.w3.org/2000/svg" xmlns:xlink="http://www.w3.org/1999/xlink" x="0px" y="0px"
	 width="80px" height="80px" viewBox="0 0 80 80" enable-background="new 0 0 80 80" xml:space="preserve">
<path fill-rule="evenodd" clip-rule="evenodd" fill="#FFFFFF" d="M28.333,16.5h39.517v58.602H28.333V16.5z"/>
<path d="M60.685,7.523H55.47c-0.546-3.635-3.68-6.434-7.465-6.434c-1.104,0-2,0.896-2,2v4.434H23.227
	c-0.482,0-0.951,0.049-1.413,0.121c-0.006,0.001-0.013,0.002-0.019,0.003c-4.332,0.69-7.658,4.442-7.658,8.966v43.188
	c0,0.179,0.031,0.35,0.075,0.515c-0.044,0.331-0.075,0.666-0.075,1.009c0,4.167,3.39,7.558,7.558,7.558h2.455v5.649l4.409-4.283
	l4.409,4.283v-5.649h27.718c1.104,0,2-0.896,2-2V9.523C62.685,8.418,61.789,7.523,60.685,7.523z M55.563,50.21
	c0-0.326-0.028-0.646-0.068-0.961c0.04-0.158,0.068-0.321,0.068-0.492V11.523h3.121v42.245H54.67
	C55.239,52.706,55.563,51.496,55.563,50.21z M51.563,8.647v0.866c0,0.003-0.001,0.006-0.001,0.01s0.001,0.006,0.001,0.01v34.013
	c-0.489-0.262-1.012-0.466-1.558-0.616V5.708C50.945,6.349,51.563,7.426,51.563,8.647z M46.006,27.573H30.88c-1.104,0-2,0.896-2,2
	s0.896,2,2,2h15.126v4.469H30.88c-1.104,0-2,0.896-2,2s0.896,2,2,2h15.126v4.61c0,1.104,0.896,2,2,2
	c1.962,0,3.558,1.596,3.558,3.558s-1.596,3.558-3.558,3.558H24.203V11.523h21.803V27.573z M20.203,12.542v41.374
	c-0.732,0.147-1.426,0.401-2.066,0.744V16.613C18.137,14.943,18.956,13.471,20.203,12.542z M24.149,61.234v3.649h-2.455
	c-1.962,0-3.558-1.596-3.558-3.558s1.596-3.559,3.558-3.559h36.99v7.116H32.967v-3.649H24.149z"/>
</svg>
