<?xml version="1.0" encoding="utf-8"?>
<!-- Generator: Adobe Illustrator 17.0.0, SVG Export Plug-In . SVG Version: 6.00 Build 0)  -->
<!DOCTYPE svg PUBLIC "-//W3C//DTD SVG 1.1//EN" "http://www.w3.org/Graphics/SVG/1.1/DTD/svg11.dtd">
<svg version="1.1" id="Layer_1" xmlns="http://www.w3.org/2000/svg" xmlns:xlink="http://www.w3.org/1999/xlink" x="0px" y="0px"
	 width="80px" height="80px" viewBox="0 0 80 80" enable-background="new 0 0 80 80" xml:space="preserve">
<path fill="#FFFFFF" d="M68.507,77.008l-0.965,0.965l-3.869-3.869c-0.757-0.757-1.984-0.757-2.741,0
	c-0.09,0.09-0.168,0.188-0.237,0.29L57.09,78l-3.709-3.709c-0.049-0.063-0.094-0.128-0.152-0.186c-0.757-0.757-1.984-0.757-2.741,0
	l-3.869,3.869l-3.869-3.869c-0.756-0.757-1.985-0.757-2.741,0l-3.869,3.869l-0.537-0.537V31.231c0-0.932-0.201-1.817-0.556-2.62
	h29.584c2.138,0,3.877,1.739,3.877,3.877V77.008z"/>
<path d="M60.754,20.76h-7.632V7.695c0-1.603-1.304-2.907-2.907-2.907h-37.69c-1.469,0-2.675,1.099-2.868,2.516
	c-0.026,0.126-0.04,0.257-0.04,0.391V50.83c0,3.582,2.914,6.496,6.496,6.496h8.721c1.07,0,1.938-0.868,1.938-1.938
	s-0.868-1.938-1.938-1.938h-2.781c0.355-0.802,0.556-1.687,0.556-2.62V27.257c0-1.445,1.175-2.62,2.62-2.62
	c1.445,0,2.62,1.175,2.62,2.62V71.18c0,0.065,0.013,0.127,0.019,0.191c0.006,0.061,0.007,0.123,0.019,0.184
	c0.016,0.083,0.045,0.162,0.071,0.241c0.013,0.04,0.021,0.082,0.038,0.121c0.036,0.088,0.084,0.17,0.132,0.251
	c0.016,0.027,0.027,0.057,0.045,0.083c0.073,0.11,0.157,0.212,0.25,0.305l2.468,2.468c0.378,0.379,0.875,0.568,1.37,0.568
	c0.496,0,0.992-0.189,1.37-0.568l3.869-3.869l3.869,3.869c0.379,0.379,0.875,0.568,1.37,0.568c0.496,0,0.992-0.189,1.37-0.568
	l3.852-3.852l3.878,3.878c0.379,0.379,0.875,0.568,1.37,0.568s0.992-0.189,1.37-0.568l3.869-3.869l3.843,3.843
	c0.379,0.379,0.875,0.568,1.37,0.568s0.992-0.189,1.37-0.568l2.902-2.902c0.091-0.09,0.172-0.19,0.243-0.297
	c0.031-0.046,0.052-0.096,0.078-0.144c0.035-0.063,0.072-0.123,0.1-0.19c0.026-0.063,0.041-0.129,0.06-0.193
	c0.017-0.056,0.038-0.11,0.05-0.168c0.025-0.125,0.038-0.252,0.038-0.379V28.513C68.507,24.238,65.029,20.76,60.754,20.76z
	 M25.335,20.76c-0.012,0-0.023,0.003-0.035,0.004c-0.024,0-0.046-0.004-0.07-0.004c-3.582,0-6.496,2.914-6.496,6.496V50.83
	c0,1.444-1.175,2.62-2.62,2.62s-2.62-1.175-2.62-2.62V8.664h35.751V20.76H25.335z M64.631,69.948l-0.965,0.965l-3.869-3.869
	c-0.757-0.757-1.984-0.757-2.741,0c-0.09,0.09-0.168,0.188-0.237,0.29l-3.606,3.606l-3.709-3.709
	c-0.049-0.063-0.094-0.128-0.152-0.186c-0.757-0.757-1.984-0.757-2.741,0l-3.869,3.869l-3.869-3.869
	c-0.756-0.757-1.985-0.757-2.741,0l-3.869,3.869l-0.537-0.537v-43.12c0-0.932-0.201-1.817-0.556-2.62h29.584
	c2.138,0,3.877,1.739,3.877,3.877V69.948z M60.974,30.288H34.989c-1.07,0-1.938,0.868-1.938,1.938c0,1.07,0.868,1.938,1.938,1.938
	h25.985c1.07,0,1.938-0.868,1.938-1.938C62.912,31.156,62.044,30.288,60.974,30.288z M34.989,41.071h19.224
	c1.07,0,1.938-0.868,1.938-1.939c0-1.07-0.868-1.938-1.938-1.938H34.989c-1.07,0-1.938,0.868-1.938,1.938
	C33.05,40.203,33.918,41.071,34.989,41.071z M60.974,43.433H34.989c-1.07,0-1.938,0.868-1.938,1.938s0.868,1.938,1.938,1.938h25.985
	c1.07,0,1.938-0.868,1.938-1.938S62.044,43.433,60.974,43.433z M54.212,50.338H34.989c-1.07,0-1.938,0.868-1.938,1.938
	s0.868,1.938,1.938,1.938h19.224c1.07,0,1.938-0.868,1.938-1.938S55.283,50.338,54.212,50.338z"/>
</svg>
