<?xml version="1.0" encoding="utf-8"?>
<!-- Generator: Adobe Illustrator 17.0.0, SVG Export Plug-In . SVG Version: 6.00 Build 0)  -->
<!DOCTYPE svg PUBLIC "-//W3C//DTD SVG 1.1//EN" "http://www.w3.org/Graphics/SVG/1.1/DTD/svg11.dtd">
<svg version="1.1" id="Layer_1" xmlns="http://www.w3.org/2000/svg" xmlns:xlink="http://www.w3.org/1999/xlink" x="0px" y="0px"
	 width="80px" height="80px" viewBox="0 0 80 80" enable-background="new 0 0 80 80" xml:space="preserve">
<path fill-rule="evenodd" clip-rule="evenodd" fill="#FFFFFF" d="M41.517,24.003c12.341,0,22.346,11.64,22.346,25.998
	C63.863,64.36,53.858,76,41.517,76S19.171,64.36,19.171,50.001C19.171,35.643,29.176,24.003,41.517,24.003z"/>
<path d="M57.661,46.813c-1.104,0-2,0.896-2,2c0,11.197-9.041,20.308-20.155,20.308c-11.113,0-20.154-9.11-20.154-20.308
	c0-1.104-0.896-2-2-2s-2,0.896-2,2c0,13.403,10.835,24.308,24.154,24.308c13.319,0,24.155-10.904,24.155-24.308
	C59.661,47.709,58.766,46.813,57.661,46.813z M30.482,42.138h-9.237c-1.104,0-2,0.896-2,2s0.896,2,2,2h9.237c1.104,0,2-0.896,2-2
	S31.586,42.138,30.482,42.138z M49.457,46.138c1.104,0,2-0.896,2-2s-0.896-2-2-2H39.395c-1.104,0-2,0.896-2,2s0.896,2,2,2H49.457z
	 M33.876,56.1c-1.104,0-2,0.896-2,2s0.896,2,2,2h3.261c1.104,0,2-0.896,2-2s-0.896-2-2-2H33.876z M67.944,20.672
	c-0.554-0.471-1.318-0.605-1.998-0.351l-4.738,1.773l-1.246-4.738c-0.145-0.547-0.513-1.007-1.015-1.267
	c-0.505-0.261-1.093-0.296-1.621-0.097l-4.734,1.772l-1.245-4.735c-0.145-0.547-0.513-1.007-1.015-1.267
	c-0.504-0.261-1.093-0.296-1.621-0.097l-4.738,1.773L42.727,8.7c-0.145-0.547-0.513-1.007-1.015-1.267
	c-0.504-0.26-1.092-0.296-1.621-0.097l-4.736,1.772l-1.25-4.739c-0.212-0.804-0.9-1.393-1.727-1.479
	c-0.83-0.09-1.622,0.349-1.994,1.092l-7.25,14.435c-0.308,0.613-0.27,1.308,0.039,1.867c-7.258,4.334-11.802,12.202-11.802,20.859
	c0,1.104,0.896,2,2,2s2-0.896,2-2c0-7.987,4.624-15.164,11.816-18.452L55.16,36.745c0.316,1.438,0.482,2.916,0.482,4.398
	c0,1.104,0.896,2,2,2s2-0.896,2-2c0-0.845-0.05-1.687-0.137-2.525c0.175-0.01,0.35-0.028,0.52-0.084
	c0.504-0.167,0.92-0.527,1.158-1.001l7.25-14.436c0.08-0.159,0.14-0.333,0.175-0.509C68.751,21.876,68.497,21.143,67.944,20.672z
	 M58.507,33.95L27.606,18.425l3.98-7.924l0.465,1.765c0.145,0.546,0.513,1.006,1.015,1.266c0.502,0.259,1.091,0.295,1.62,0.097
	l4.735-1.771l1.246,4.734c0.146,0.555,0.529,1.023,1.042,1.281c0.497,0.25,1.078,0.281,1.599,0.085l4.734-1.772l1.245,4.735
	c0.145,0.547,0.513,1.007,1.015,1.267c0.504,0.26,1.092,0.295,1.621,0.097l4.734-1.772l1.245,4.734
	c0.146,0.555,0.529,1.023,1.042,1.281c0.497,0.25,1.078,0.281,1.599,0.085l2.03-0.76L58.507,33.95z"/>
</svg>
